<svg xmlns="http://www.w3.org/2000/svg" width="256" height="256" viewBox="0 0 256 256">
  <defs>
    <linearGradient id="bg" x1="0" y1="0" x2="1" y2="1">
      <stop offset="0" stop-color="#16222e"/>
      <stop offset="1" stop-color="#0a0f16"/>
    </linearGradient>
    <linearGradient id="fader" x1="0" y1="0" x2="0" y2="1">
      <stop offset="0" stop-color="#22d3ee"/>
      <stop offset="1" stop-color="#0891b2"/>
    </linearGradient>
  </defs>
  <rect x="8" y="8" width="240" height="240" rx="40" fill="url(#bg)"/>
  <rect x="8" y="8" width="240" height="240" rx="40" fill="none" stroke="#22303e" stroke-width="4"/>

  <text x="128" y="52" font-family="DejaVu Sans, sans-serif" font-size="26" font-weight="bold" fill="#5eead4" text-anchor="middle" letter-spacing="2">US-122L</text>

  <g stroke="#22303e" stroke-width="6" stroke-linecap="round">
    <line x1="56" y1="80" x2="56" y2="210"/>
    <line x1="128" y1="80" x2="128" y2="210"/>
    <line x1="200" y1="80" x2="200" y2="210"/>
  </g>

  <g>
    <rect x="36" y="120" width="40" height="20" rx="8" fill="url(#fader)"/>
    <rect x="36" y="96" width="40" height="20" rx="8" fill="#334155"/>
    <rect x="108" y="70" width="40" height="20" rx="8" fill="url(#fader)"/>
    <rect x="180" y="160" width="40" height="20" rx="8" fill="url(#fader)"/>
    <rect x="180" y="136" width="40" height="20" rx="8" fill="#334155"/>
  </g>

  <g fill="#64748b">
    <circle cx="56" cy="214" r="5"/>
    <circle cx="128" cy="214" r="5"/>
    <circle cx="200" cy="214" r="5"/>
  </g>
</svg>
